<?xml version="1.0" encoding="iso-8859-1"?>
<!-- Generator: Adobe Illustrator 19.0.0, SVG Export Plug-In . SVG Version: 6.00 Build 0)  -->
<svg version="1.1" id="Capa_1" xmlns="http://www.w3.org/2000/svg" xmlns:xlink="http://www.w3.org/1999/xlink" x="0px" y="0px"
	 viewBox="0 0 480.164 480.164" style="enable-background:new 0 0 480.164 480.164;" xml:space="preserve">
<path style="fill:#CFF2F8;" d="M350.72,264.082H352c-32,48-28.72,52.32-36.48,89.68c-2.64,12.88-13.6,22.32-26.8,22.32h-97.44
	c-13.2,0-24.16-9.44-26.8-22.32c-7.76-37.36-4.48-41.68-36.48-89.68h1.28c-25.6-27.12-41.28-63.76-41.28-104
	c0-83.92,68.08-152,152-152s152,68.08,152,152C392,200.322,376.32,236.962,350.72,264.082z"/>
<path style="fill:#F88756;" d="M224,240.082v-184h-24c-8.837,0-16,7.163-16,16v8h-16c-8.837,0-16,7.163-16,16v32h-8
	c-8.837,0-16,7.163-16,16v56h32v24c0,8.837,7.163,16,16,16H224z"/>
<path style="fill:#3F708D;" d="M256,240.082v-184h24c8.837,0,16,7.163,16,16l0,8h16c8.837,0,16,7.163,16,16v32h8
	c8.837,0,16,7.163,16,16v40h-32v40c0,8.837-7.163,16-16,16H256z"/>
<g>
	<path style="fill:#2E5166;" d="M296,200.082h-16v-16c0-4.418,3.578-8,8-8h32v16h-24V200.082z"/>
	<path style="fill:#2E5166;" d="M296,136.082h-16v-16h-24v-16h32c4.422,0,8,3.582,8,8V136.082z"/>
</g>
<g>
	<path style="fill:#E15D2D;" d="M168,200.082h-16v-32c0-4.418,3.578-8,8-8h24v16h-16V200.082z"/>
	<rect x="176" y="80.082" style="fill:#E15D2D;" width="16" height="24"/>
</g>
<g>
	<path style="fill:#FFBE00;" d="M192,376.082h96c8.837,0,16,7.163,16,16v0c0,8.837-7.163,16-16,16h-96c-8.837,0-16-7.163-16-16v0
		C176,383.245,183.163,376.082,192,376.082z"/>
	<path style="fill:#FFBE00;" d="M200,408.082l80,0c8.837,0,16,7.163,16,16v0c0,8.837-7.163,16-16,16l-80,0c-8.837,0-16-7.163-16-16
		v0C184,415.245,191.163,408.082,200,408.082z"/>
	<path style="fill:#FFBE00;" d="M208,440.082h64c8.837,0,16,7.163,16,16v0c0,8.837-7.163,16-16,16h-64c-8.837,0-16-7.163-16-16v0
		C192,447.245,199.163,440.082,208,440.082z"/>
</g>
<rect x="196" y="239.03" transform="matrix(-0.9848 0.1738 -0.1738 -0.9848 458.43 576.0224)" style="fill:#E15D2D;" width="15.992" height="138.104"/>
<rect x="206.946" y="300.075" transform="matrix(-0.1739 0.9848 -0.9848 -0.1739 627.371 89.8524)" style="fill:#2E5166;" width="138.104" height="15.992"/>
<g>
	<path style="fill:#E7343A;" d="M448,288.082c-0.148,0-0.305-0.004-0.453-0.012c-3.438-0.199-6.359-2.566-7.266-5.883
		l-18.492-67.801l-14.633,29.273c-1.359,2.711-4.125,4.422-7.156,4.422h-32v-16h27.055l21.789-43.578
		c1.484-2.961,4.586-4.742,7.945-4.383c3.297,0.328,6.055,2.656,6.93,5.855l17.719,64.973l7.133-17.84
		c1.242-3.09,4.453-4.926,7.594-5.027l16,0.32l-0.328,16l-10.461-0.211l-13.945,34.863C454.211,286.102,451.258,288.082,448,288.082
		z"/>
	<path style="fill:#E7343A;" d="M80,288.082c-0.148,0-0.305-0.004-0.453-0.012c-3.438-0.199-6.359-2.566-7.266-5.883l-18.492-67.801
		L39.156,243.66c-1.359,2.711-4.125,4.422-7.156,4.422H0v-16h27.055l21.789-43.578c1.484-2.961,4.555-4.742,7.945-4.383
		c3.297,0.328,6.055,2.656,6.93,5.855l17.719,64.973l7.133-17.84c1.242-3.09,4.375-4.926,7.594-5.027l16,0.32l-0.328,16
		l-10.461-0.211L87.43,283.055C86.211,286.102,83.258,288.082,80,288.082z"/>
</g>
<g>
</g>
<g>
</g>
<g>
</g>
<g>
</g>
<g>
</g>
<g>
</g>
<g>
</g>
<g>
</g>
<g>
</g>
<g>
</g>
<g>
</g>
<g>
</g>
<g>
</g>
<g>
</g>
<g>
</g>
</svg>
